# xmcd
#
# Track frame offsets:
# 150
# 11097
# 28512
# 42150
# 60096
# 77055
# 90210
# 107796
# 123906
# 139293
# 151401
# 165972
# 185604
# 202557
#
# Disc length: 2929 seconds
#
#
# Revision: 0
# Processed by: cddbd v1.5.1PL2 Copyright (c) Steve Scherf et al.
# Submitted via: FreeRIP 2.944 
#
DISCID=9c0b6f0e
DTITLE=CEZAR and PAULINHO - DOEU DEMAIS
DYEAR=2002
DGENRE=Country
TTITLE0=PÉ DE BODE
TTITLE1=O FEIJÃO E A FLOR
TTITLE2=VAE DE RODA
TTITLE3=EU E MEU PAI
TTITLE4=DOU DE MAIS
TTITLE5=ASA DELTA
TTITLE6=BOBOCA E BOBÃO
TTITLE7=VECE MARCOU PRA MIM
TTITLE8=TCHACA TCH NA BUTCHACA
TTITLE9=SACO DE OURO
TTITLE10=NETO DE CARREIRO
TTITLE11=SANTA MARIA DO BRASIL
TTITLE12=VIAJANTE SOLITÁRIO
TTITLE13=DONA DO MEU MUNDO
EXTD=
EXTT0=
EXTT1=
EXTT2=
EXTT3=
EXTT4=
EXTT5=
EXTT6=
EXTT7=
EXTT8=
EXTT9=
EXTT10=
EXTT11=
EXTT12=
EXTT13=
PLAYORDER=
